<svg height="20" viewBox="0 0 32 32" width="20" xmlns="http://www.w3.org/2000/svg"><g fill="none" fill-rule="evenodd"><path d="M0 0h32v32H0z"/><path d="M16 4c8.837 0 16 7.984 16 12s-7.163 12-16 12S0 20.016 0 16 7.163 4 16 4zm0 2c-3.548 0-7.112 1.51-10.007 4.008C3.557 12.11 2 14.635 2 16s1.557 3.89 3.993 5.992C8.888 24.49 12.452 26 16 26s7.112-1.51 10.007-4.008C28.443 19.89 30 17.365 30 16s-1.557-3.89-3.993-5.992C23.112 7.51 19.548 6 16 6zm0 4a6 6 0 1 1 0 12 6 6 0 0 1 0-12zm0 2a4 4 0 1 0 0 8 4 4 0 0 0 0-8z" fill="#000" fill-rule="nonzero"/></g></svg>